<svg width="128" height="128" viewBox="0 0 128 128" fill="none" xmlns="http://www.w3.org/2000/svg">
<circle cx="64" cy="64" r="64" fill="#FF4500"/>
<path d="M57.6512 87L67.1412 69.775H69.8062V87H80.9212V41.37H62.2662C58.6695 41.37 55.6145 41.9983 53.1012 43.255C50.5445 44.5117 48.6378 46.245 47.3812 48.455C46.1245 50.6217 45.4962 53.0483 45.4962 55.735C45.4962 58.7683 46.3628 61.4767 48.0962 63.86C49.7862 66.2433 52.2995 67.9333 55.6362 68.93L45.1062 87H57.6512ZM69.8062 61.91H62.9162C60.8795 61.91 59.3628 61.4117 58.3662 60.415C57.3262 59.4183 56.8062 58.01 56.8062 56.19C56.8062 54.4567 57.3262 53.0917 58.3662 52.095C59.3628 51.0983 60.8795 50.6 62.9162 50.6H69.8062V61.91Z" fill="white"/>
</svg>
